<svg width="903" height="749" viewBox="0 0 903 749" fill="none" xmlns="http://www.w3.org/2000/svg">
<path d="M671.504 500.829L781.989 68.22H902.86V0.219971H729.174L703.128 102.2L0 101.697L74.753 500.826H671.504V500.829ZM685.766 170.188L618.689 432.828H131.199L81.928 169.756L685.766 170.188Z" fill="white"/>
<path d="M578.418 748.641C638.379 748.641 687.161 699.858 687.161 639.897C687.161 579.936 638.379 531.155 578.418 531.155H168.717C108.756 531.155 59.973 579.936 59.973 639.897C59.973 699.858 108.755 748.641 168.717 748.641C228.679 748.641 277.46 699.858 277.46 639.897C277.46 625.497 274.639 611.745 269.533 599.155H477.602C472.495 611.745 469.674 625.497 469.674 639.897C469.675 699.858 518.457 748.641 578.418 748.641ZM209.46 639.897C209.46 662.364 191.183 680.641 168.717 680.641C146.251 680.641 127.973 662.364 127.973 639.897C127.973 617.432 146.25 599.155 168.717 599.155C191.183 599.155 209.46 617.432 209.46 639.897ZM619.162 639.897C619.162 662.364 600.885 680.641 578.419 680.641C555.953 680.641 537.676 662.364 537.676 639.897C537.676 617.432 555.953 599.155 578.419 599.155C600.885 599.155 619.162 617.432 619.162 639.897Z" fill="white"/>
</svg>
